<svg xmlns="http://www.w3.org/2000/svg" xmlns:xlink="http://www.w3.org/1999/xlink" width="852.342" height="1104.351" viewBox="0 0 852.342 1104.351">
  <defs>
    <filter id="Intersection_1" x="326.342" y="375.812" width="526" height="728.539" filterUnits="userSpaceOnUse">
      <feOffset dx="8" dy="4" input="SourceAlpha"/>
      <feGaussianBlur stdDeviation="4" result="blur"/>
      <feFlood flood-opacity="0.161"/>
      <feComposite operator="in" in2="blur"/>
      <feComposite in="SourceGraphic"/>
    </filter>
    <filter id="Subtraction_2" x="0" y="0" width="755.842" height="729.464" filterUnits="userSpaceOnUse">
      <feOffset dy="10" input="SourceAlpha"/>
      <feGaussianBlur stdDeviation="0.5" result="blur-2"/>
      <feFlood flood-opacity="0.161"/>
      <feComposite operator="in" in2="blur-2"/>
      <feComposite in="SourceGraphic"/>
    </filter>
  </defs>
  <g id="Group_26" data-name="Group 26" transform="translate(-449.658 11.352)">
    <g transform="matrix(1, 0, 0, 1, 449.66, -11.35)" filter="url(#Intersection_1)">
      <g id="Intersection_1-2" data-name="Intersection 1" transform="translate(197.34 5409.35)" fill="#04355c">
        <path d="M 634.2243041992188 -4321.4990234375 L 157.2655792236328 -4321.4990234375 C 141.4947509765625 -4385.595703125 133.49951171875 -4452.48681640625 133.49951171875 -4520.330078125 C 133.49951171875 -4545.31005859375 134.6001434326172 -4570.4814453125 136.7706909179688 -4595.14599609375 C 138.9069671630859 -4619.41943359375 142.1294250488281 -4643.77001953125 146.3485107421875 -4667.521484375 C 150.5088806152344 -4690.94189453125 155.7341461181641 -4714.31884765625 161.8790588378906 -4737.00390625 C 167.9519653320312 -4759.4228515625 175.0609588623047 -4781.6748046875 183.0085144042969 -4803.1416015625 C 190.8824157714844 -4824.40966796875 199.7560577392578 -4845.38427734375 209.3826904296875 -4865.482421875 C 218.9462432861328 -4885.4482421875 229.46533203125 -4904.9931640625 240.6476898193359 -4923.5732421875 C 251.7887878417969 -4942.0849609375 263.8341369628906 -4960.0478515625 276.4491577148438 -4976.962890625 C 288.9004211425781 -4993.65869140625 302.1782836914062 -5009.697265625 315.9212036132812 -5024.6435546875 L 634.2243041992188 -4321.4990234375 Z" stroke="none"/>
        <path d="M 633.4491577148438 -4321.9990234375 L 315.7777404785156 -5023.748046875 C 302.228515625 -5008.97314453125 289.1365661621094 -4993.138671875 276.8499755859375 -4976.6640625 C 264.2447814941406 -4959.76220703125 252.2086944580078 -4941.81298828125 241.0761413574219 -4923.3154296875 C 229.9018707275391 -4904.74853515625 219.3904266357422 -4885.21826171875 209.8336944580078 -4865.26611328125 C 200.2136077880859 -4845.18212890625 191.3460540771484 -4824.2216796875 183.4774169921875 -4802.96826171875 C 175.5349731445312 -4781.51513671875 168.4306945800781 -4759.27783203125 162.3616943359375 -4736.873046875 C 156.2205963134766 -4714.20263671875 150.9985961914062 -4690.83984375 146.8407897949219 -4667.43408203125 C 142.6242370605469 -4643.697265625 139.4036865234375 -4619.361328125 137.2687835693359 -4595.10205078125 C 135.0994262695312 -4570.4521484375 133.99951171875 -4545.29541015625 133.99951171875 -4520.330078125 C 133.99951171875 -4452.6640625 141.9595031738281 -4385.9384765625 157.6575469970703 -4321.9990234375 L 633.4491577148438 -4321.9990234375 M 634.99951171875 -4320.9990234375 L 156.873779296875 -4320.9990234375 C 141.3621520996094 -4383.91015625 132.99951171875 -4450.8671875 132.99951171875 -4520.330078125 C 132.99951171875 -4722.80859375 204.0845184326172 -4904.076171875 316.0651550292969 -5025.5380859375 L 634.99951171875 -4320.9990234375 Z" stroke="none" fill="#707070"/>
      </g>
    </g>
    <g id="Subtraction_1" data-name="Subtraction 1" transform="translate(965.078 35.789) rotate(56)" fill="#04355c">
      <path d="M 288.2098999023438 576.24267578125 C 268.690185546875 576.24267578125 249.1815490722656 574.2750244140625 230.2259826660156 570.3944091796875 C 211.7530517578125 566.6119995117188 193.5830535888672 560.9686279296875 176.2206268310547 553.6210327148438 C 159.1707000732422 546.4052124023438 142.7279815673828 537.4754638671875 127.3492660522461 527.0798950195312 C 112.1148376464844 516.78173828125 97.78861999511719 504.9548950195312 84.7685546875 491.9278259277344 C 71.74862670898438 478.9001159667969 59.92848205566406 464.5657043457031 49.63633728027344 449.32275390625 C 39.24497985839844 433.9330444335938 30.3200511932373 417.4811096191406 23.10969543457031 400.4239196777344 C 15.76576614379883 383.0519714355469 10.12540912628174 364.8714904785156 6.345337867736816 346.3875427246094 C 2.466694831848145 327.4231872558594 0.5000519752502441 307.9038391113281 0.5000519752502441 288.3715515136719 C 0.5000519752502441 268.83984375 2.466694831848145 249.3204803466797 6.345337867736816 230.3555450439453 C 10.12569522857666 211.8709869384766 15.76598072052002 193.6906890869141 23.10962295532227 176.3197021484375 C 30.31933784484863 159.2641296386719 39.24426651000977 142.8121948242188 49.63626480102539 127.4209060668945 C 59.92819595336914 112.1781921386719 71.74833679199219 97.84376525878906 84.76847839355469 84.81584167480469 C 97.78504943847656 71.79212188720703 112.1112670898438 59.96519470214844 127.3491973876953 49.66376495361328 C 142.7284088134766 39.26798248291016 159.1710510253906 30.33826637268066 176.2205505371094 23.1225528717041 C 193.5822601318359 15.77483749389648 211.7522735595703 10.13133811950684 230.2259063720703 6.348766326904297 C 249.1830444335938 2.467766523361206 268.6916809082031 0.4999807476997375 288.2098388671875 0.4999807476997375 C 309.7798461914062 0.4999807476997375 331.2879943847656 2.899409294128418 352.1369018554688 7.6316237449646 C 372.3114013671875 12.2112340927124 392.0327758789062 19.01159858703613 410.7591857910156 27.84566497802734 L 410.7591857910156 548.8975219726562 C 392.0317077636719 557.732421875 372.3103332519531 564.5330200195312 352.1369934082031 569.112060546875 C 331.291259765625 573.8436279296875 309.7831115722656 576.24267578125 288.2098999023438 576.24267578125 Z" stroke="none"/>
      <path d="M 288.2098999023438 575.74267578125 C 309.7459106445312 575.74267578125 331.2168273925781 573.3477783203125 352.0262756347656 568.6243896484375 C 372.061767578125 564.07666015625 391.649658203125 557.3342895507812 410.2591857910156 548.5804443359375 L 410.2591857910156 28.16276931762695 C 391.6506958007812 19.40970230102539 372.0628356933594 12.66749858856201 352.0261840820312 8.119266510009766 C 331.2135620117188 3.395266532897949 309.7426147460938 0.9999807476997375 288.2098388671875 0.9999807476997375 C 268.7252807617188 0.9999807476997375 249.2504119873047 2.964337825775146 230.3262023925781 6.838551998138428 C 211.8849029541016 10.61455249786377 193.7466888427734 16.24819564819336 176.4154815673828 23.58305168151855 C 159.3956909179688 30.78612327575684 142.9816284179688 39.70033645629883 127.629264831543 50.07798004150391 C 112.4176940917969 60.36162185668945 98.11619567871094 72.16805267333984 85.12212371826172 85.16933441162109 C 72.12448120117188 98.17469787597656 60.32476806640625 112.4843368530273 50.05069351196289 127.7006912231445 C 39.67669296264648 143.0652618408203 30.76733779907227 159.4885559082031 23.57012367248535 176.5143432617188 C 16.23940849304199 193.85498046875 10.60890865325928 212.0034790039062 6.835195064544678 230.4556884765625 C 2.963266372680664 249.3877716064453 1.000051975250244 268.8734130859375 1.000051975250244 288.3715515136719 C 1.000051975250244 307.8702697753906 2.963266372680664 327.3558959960938 6.835195064544678 346.2874145507812 C 10.6086950302124 364.7389831542969 16.2391242980957 382.8876342773438 23.57019424438477 400.2292785644531 C 30.76805114746094 417.2566833496094 39.67741012573242 433.6799926757812 50.05076599121094 449.04296875 C 60.32505035400391 464.2595520019531 72.12476348876953 478.5691833496094 85.1221923828125 491.5743408203125 C 98.11976623535156 504.5789794921875 112.4211959838867 516.3853149414062 127.629264831543 526.6656494140625 C 142.981201171875 537.0431518554688 159.395263671875 545.9573364257812 176.4154815673828 553.16064453125 C 193.7474822998047 560.495361328125 211.8856964111328 566.1287841796875 230.3262634277344 569.904541015625 C 249.2489166259766 573.7785034179688 268.7238464355469 575.74267578125 288.2098999023438 575.74267578125 M 288.2098999023438 576.74267578125 C 268.6559143066406 576.74267578125 249.1134796142578 574.771484375 230.1257019042969 570.88427734375 C 211.6202697753906 567.09521484375 193.4184112548828 561.44189453125 176.0257720947266 554.08154296875 C 158.9481201171875 546.85400390625 142.4767608642578 537.9091796875 127.0692672729492 527.494140625 C 111.8085556030273 517.1782836914062 97.45762634277344 505.3310546875 84.41490936279297 492.2812805175781 C 71.37290954589844 479.2314758300781 59.5323371887207 464.87255859375 49.22198104858398 449.6025390625 C 38.81248092651367 434.1860656738281 29.87212371826172 417.70556640625 22.64912414550781 400.6186218261719 C 15.29219436645508 383.2158508300781 9.642051696777344 365.00341796875 5.855480670928955 346.4877624511719 C 1.970052003860474 327.4902648925781 5.198451617616229e-05 307.9369812011719 5.198451617616229e-05 288.3715515136719 C 5.198451617616229e-05 268.8061218261719 1.970052003860474 249.2534027099609 5.855480670928955 230.2553405761719 C 9.642266273498535 211.7392730712891 15.29240894317627 193.5268402099609 22.64905166625977 176.1249847412109 C 29.87205123901367 159.0381164550781 38.81248092651367 142.5581207275391 49.22190856933594 127.1411209106445 C 59.53219604492188 111.8711242675781 71.37284088134766 97.51219177246094 84.41484069824219 84.46240997314453 C 97.45597839355469 71.41405487060547 111.8069839477539 59.56740951538086 127.0691986083984 49.24955368041992 C 142.4769134521484 38.83448028564453 158.9482727050781 29.88962364196777 176.0256958007812 22.66212272644043 C 193.4184112548828 15.30126667022705 211.6202697753906 9.647980690002441 230.1256256103516 5.858909130096436 C 249.1133422851562 1.971695065498352 268.6557006835938 -1.925223295984324e-05 288.2098388671875 -1.925223295984324e-05 C 309.8202514648438 -1.925223295984324e-05 331.3656921386719 2.404337882995605 352.24755859375 7.144052028656006 C 372.5599060058594 11.75490951538086 392.4143371582031 18.61326599121094 411.2591857910156 27.52883720397949 L 411.2591857910156 549.21435546875 C 392.4131164550781 558.130859375 372.5589904785156 564.9892578125 352.2476196289062 569.599609375 C 331.3660583496094 574.33935546875 309.8206176757812 576.74267578125 288.2098999023438 576.74267578125 Z" stroke="none" fill="#707070"/>
    </g>
    <g transform="matrix(1, 0, 0, 1, 449.66, -11.35)" filter="url(#Subtraction_2)">
      <path id="Subtraction_2-2" data-name="Subtraction 2" d="M325.952,594.368a359.127,359.127,0,0,1-65.69-6.037,347.84,347.84,0,0,1-61.184-17.316,337.1,337.1,0,0,1-55.368-27.4,323.89,323.89,0,0,1-48.24-36.288,307.332,307.332,0,0,1-39.8-43.983,290.045,290.045,0,0,1-30.053-50.481A276.939,276.939,0,0,1,6.622,357.077a274.147,274.147,0,0,1,0-119.784,276.958,276.958,0,0,1,18.993-55.786,290.037,290.037,0,0,1,30.053-50.48,307.291,307.291,0,0,1,39.8-43.983,323.851,323.851,0,0,1,48.24-36.289,337,337,0,0,1,55.367-27.4A347.633,347.633,0,0,1,260.261,6.039,360.114,360.114,0,0,1,398.375,7.362,345.9,345.9,0,0,1,465.115,28.37V566a345.889,345.889,0,0,1-66.739,21.007A358.279,358.279,0,0,1,325.952,594.368Z" transform="translate(494.25 0) rotate(56)" fill="rgba(4,53,92,0.67)"/>
    </g>
  </g>
</svg>
