<svg xmlns="http://www.w3.org/2000/svg" xmlns:xlink="http://www.w3.org/1999/xlink" width="1269" height="864" viewBox="0 0 1269 864">
  <defs>
    <clipPath id="clip-path">
      <rect width="1269" height="864" fill="none"/>
    </clipPath>
    <radialGradient id="radial-gradient" cx="0.5" cy="0.5" r="0.5" gradientUnits="objectBoundingBox">
      <stop offset="0" stop-color="#7b97ad"/>
      <stop offset="1" stop-color="#264b68"/>
    </radialGradient>
  </defs>
  <g id="Repeat_Grid_2" data-name="Repeat Grid 2" clip-path="url(#clip-path)">
    <g id="Group_17" data-name="Group 17" transform="translate(-850 -296)">
      <path id="Path_222" data-name="Path 222" d="M0,0H385V268H0Z" transform="translate(850 296)" fill="rgba(56,202,182,0.18)"/>
      <text id="حجت_راستی" data-name="حجت راستی" transform="translate(1071 581)" fill="#04355c" font-size="30" font-family="Sahel-Black, Sahel" font-weight="800"><tspan x="-77.769" y="34">حجت راستی</tspan></text>
      <g id="Rectangle_1121" data-name="Rectangle 1121" transform="translate(1002 596)" stroke="#04355c" stroke-width="1" fill="url(#radial-gradient)">
        <rect width="64" height="23" rx="8" stroke="none"/>
        <rect x="0.5" y="0.5" width="63" height="22" rx="7.5" fill="none"/>
      </g>
      <g id="Rectangle_1122" data-name="Rectangle 1122" transform="translate(931 597)" stroke="#04355c" stroke-width="1" fill="url(#radial-gradient)">
        <rect width="64" height="23" rx="8" stroke="none"/>
        <rect x="0.5" y="0.5" width="63" height="22" rx="7.5" fill="none"/>
      </g>
      <text id="آنلاین" transform="translate(1004 595)" fill="#fff" font-size="14" font-family="Sahel"><tspan x="-32.054" y="16">آنلاین</tspan></text>
      <text id="مهندس" transform="translate(939 596)" fill="#fff" font-size="14" font-family="Sahel"><tspan x="-42.595" y="16">مهندس</tspan></text>
    </g>
    <g id="Group_17-2" data-name="Group 17" transform="translate(-430 -296)">
      <path id="Path_222-2" data-name="Path 222" d="M0,0H385V268H0Z" transform="translate(850 296)" fill="rgba(56,202,182,0.18)"/>
      <text id="حجت_راستی-2" data-name="حجت راستی" transform="translate(1071 581)" fill="#04355c" font-size="30" font-family="Sahel-Black, Sahel" font-weight="800"><tspan x="-77.769" y="34">حجت راستی</tspan></text>
      <g id="Rectangle_1121-2" data-name="Rectangle 1121" transform="translate(1002 596)" stroke="#04355c" stroke-width="1" fill="url(#radial-gradient)">
        <rect width="64" height="23" rx="8" stroke="none"/>
        <rect x="0.5" y="0.5" width="63" height="22" rx="7.5" fill="none"/>
      </g>
      <g id="Rectangle_1122-2" data-name="Rectangle 1122" transform="translate(931 597)" stroke="#04355c" stroke-width="1" fill="url(#radial-gradient)">
        <rect width="64" height="23" rx="8" stroke="none"/>
        <rect x="0.5" y="0.5" width="63" height="22" rx="7.5" fill="none"/>
      </g>
      <text id="آنلاین-2" data-name="آنلاین" transform="translate(1004 595)" fill="#fff" font-size="14" font-family="Sahel"><tspan x="-32.054" y="16">آنلاین</tspan></text>
      <text id="مهندس-2" data-name="مهندس" transform="translate(939 596)" fill="#fff" font-size="14" font-family="Sahel"><tspan x="-42.595" y="16">مهندس</tspan></text>
    </g>
    <g id="Group_17-3" data-name="Group 17" transform="translate(-10 -296)">
      <path id="Path_222-3" data-name="Path 222" d="M0,0H385V268H0Z" transform="translate(850 296)" fill="rgba(56,202,182,0.18)"/>
      <text id="حجت_راستی-3" data-name="حجت راستی" transform="translate(1071 581)" fill="#04355c" font-size="30" font-family="Sahel-Black, Sahel" font-weight="800"><tspan x="-77.769" y="34">حجت راستی</tspan></text>
      <g id="Rectangle_1121-3" data-name="Rectangle 1121" transform="translate(1002 596)" stroke="#04355c" stroke-width="1" fill="url(#radial-gradient)">
        <rect width="64" height="23" rx="8" stroke="none"/>
        <rect x="0.5" y="0.5" width="63" height="22" rx="7.5" fill="none"/>
      </g>
      <g id="Rectangle_1122-3" data-name="Rectangle 1122" transform="translate(931 597)" stroke="#04355c" stroke-width="1" fill="url(#radial-gradient)">
        <rect width="64" height="23" rx="8" stroke="none"/>
        <rect x="0.5" y="0.5" width="63" height="22" rx="7.5" fill="none"/>
      </g>
      <text id="آنلاین-3" data-name="آنلاین" transform="translate(1004 595)" fill="#fff" font-size="14" font-family="Sahel"><tspan x="-32.054" y="16">آنلاین</tspan></text>
      <text id="مهندس-3" data-name="مهندس" transform="translate(939 596)" fill="#fff" font-size="14" font-family="Sahel"><tspan x="-42.595" y="16">مهندس</tspan></text>
    </g>
    <g id="Group_17-4" data-name="Group 17" transform="translate(410 -296)">
      <path id="Path_222-4" data-name="Path 222" d="M0,0H385V268H0Z" transform="translate(850 296)" fill="rgba(56,202,182,0.18)"/>
      <text id="حجت_راستی-4" data-name="حجت راستی" transform="translate(1071 581)" fill="#04355c" font-size="30" font-family="Sahel-Black, Sahel" font-weight="800"><tspan x="-77.769" y="34">حجت راستی</tspan></text>
      <g id="Rectangle_1121-4" data-name="Rectangle 1121" transform="translate(1002 596)" stroke="#04355c" stroke-width="1" fill="url(#radial-gradient)">
        <rect width="64" height="23" rx="8" stroke="none"/>
        <rect x="0.5" y="0.5" width="63" height="22" rx="7.5" fill="none"/>
      </g>
      <g id="Rectangle_1122-4" data-name="Rectangle 1122" transform="translate(931 597)" stroke="#04355c" stroke-width="1" fill="url(#radial-gradient)">
        <rect width="64" height="23" rx="8" stroke="none"/>
        <rect x="0.5" y="0.5" width="63" height="22" rx="7.5" fill="none"/>
      </g>
      <text id="آنلاین-4" data-name="آنلاین" transform="translate(1004 595)" fill="#fff" font-size="14" font-family="Sahel"><tspan x="-32.054" y="16">آنلاین</tspan></text>
      <text id="مهندس-4" data-name="مهندس" transform="translate(939 596)" fill="#fff" font-size="14" font-family="Sahel"><tspan x="-42.595" y="16">مهندس</tspan></text>
    </g>
    <g id="Group_17-5" data-name="Group 17" transform="translate(-850 226)">
      <path id="Path_222-5" data-name="Path 222" d="M0,0H385V268H0Z" transform="translate(850 296)" fill="rgba(56,202,182,0.18)"/>
      <text id="حجت_راستی-5" data-name="حجت راستی" transform="translate(1071 581)" fill="#04355c" font-size="30" font-family="Sahel-Black, Sahel" font-weight="800"><tspan x="-77.769" y="34">حجت راستی</tspan></text>
      <g id="Rectangle_1121-5" data-name="Rectangle 1121" transform="translate(1002 596)" stroke="#04355c" stroke-width="1" fill="url(#radial-gradient)">
        <rect width="64" height="23" rx="8" stroke="none"/>
        <rect x="0.5" y="0.5" width="63" height="22" rx="7.5" fill="none"/>
      </g>
      <g id="Rectangle_1122-5" data-name="Rectangle 1122" transform="translate(931 597)" stroke="#04355c" stroke-width="1" fill="url(#radial-gradient)">
        <rect width="64" height="23" rx="8" stroke="none"/>
        <rect x="0.5" y="0.5" width="63" height="22" rx="7.5" fill="none"/>
      </g>
      <text id="آنلاین-5" data-name="آنلاین" transform="translate(1004 595)" fill="#fff" font-size="14" font-family="Sahel"><tspan x="-32.054" y="16">آنلاین</tspan></text>
      <text id="مهندس-5" data-name="مهندس" transform="translate(939 596)" fill="#fff" font-size="14" font-family="Sahel"><tspan x="-42.595" y="16">مهندس</tspan></text>
    </g>
    <g id="Group_17-6" data-name="Group 17" transform="translate(-430 226)">
      <path id="Path_222-6" data-name="Path 222" d="M0,0H385V268H0Z" transform="translate(850 296)" fill="rgba(56,202,182,0.18)"/>
      <text id="حجت_راستی-6" data-name="حجت راستی" transform="translate(1071 581)" fill="#04355c" font-size="30" font-family="Sahel-Black, Sahel" font-weight="800"><tspan x="-77.769" y="34">حجت راستی</tspan></text>
      <g id="Rectangle_1121-6" data-name="Rectangle 1121" transform="translate(1002 596)" stroke="#04355c" stroke-width="1" fill="url(#radial-gradient)">
        <rect width="64" height="23" rx="8" stroke="none"/>
        <rect x="0.5" y="0.5" width="63" height="22" rx="7.5" fill="none"/>
      </g>
      <g id="Rectangle_1122-6" data-name="Rectangle 1122" transform="translate(931 597)" stroke="#04355c" stroke-width="1" fill="url(#radial-gradient)">
        <rect width="64" height="23" rx="8" stroke="none"/>
        <rect x="0.5" y="0.5" width="63" height="22" rx="7.5" fill="none"/>
      </g>
      <text id="آنلاین-6" data-name="آنلاین" transform="translate(1004 595)" fill="#fff" font-size="14" font-family="Sahel"><tspan x="-32.054" y="16">آنلاین</tspan></text>
      <text id="مهندس-6" data-name="مهندس" transform="translate(939 596)" fill="#fff" font-size="14" font-family="Sahel"><tspan x="-42.595" y="16">مهندس</tspan></text>
    </g>
    <g id="Group_17-7" data-name="Group 17" transform="translate(-10 226)">
      <path id="Path_222-7" data-name="Path 222" d="M0,0H385V268H0Z" transform="translate(850 296)" fill="rgba(56,202,182,0.18)"/>
      <text id="حجت_راستی-7" data-name="حجت راستی" transform="translate(1071 581)" fill="#04355c" font-size="30" font-family="Sahel-Black, Sahel" font-weight="800"><tspan x="-77.769" y="34">حجت راستی</tspan></text>
      <g id="Rectangle_1121-7" data-name="Rectangle 1121" transform="translate(1002 596)" stroke="#04355c" stroke-width="1" fill="url(#radial-gradient)">
        <rect width="64" height="23" rx="8" stroke="none"/>
        <rect x="0.5" y="0.5" width="63" height="22" rx="7.5" fill="none"/>
      </g>
      <g id="Rectangle_1122-7" data-name="Rectangle 1122" transform="translate(931 597)" stroke="#04355c" stroke-width="1" fill="url(#radial-gradient)">
        <rect width="64" height="23" rx="8" stroke="none"/>
        <rect x="0.5" y="0.5" width="63" height="22" rx="7.5" fill="none"/>
      </g>
      <text id="آنلاین-7" data-name="آنلاین" transform="translate(1004 595)" fill="#fff" font-size="14" font-family="Sahel"><tspan x="-32.054" y="16">آنلاین</tspan></text>
      <text id="مهندس-7" data-name="مهندس" transform="translate(939 596)" fill="#fff" font-size="14" font-family="Sahel"><tspan x="-42.595" y="16">مهندس</tspan></text>
    </g>
    <g id="Group_17-8" data-name="Group 17" transform="translate(410 226)">
      <path id="Path_222-8" data-name="Path 222" d="M0,0H385V268H0Z" transform="translate(850 296)" fill="rgba(56,202,182,0.18)"/>
      <text id="حجت_راستی-8" data-name="حجت راستی" transform="translate(1071 581)" fill="#04355c" font-size="30" font-family="Sahel-Black, Sahel" font-weight="800"><tspan x="-77.769" y="34">حجت راستی</tspan></text>
      <g id="Rectangle_1121-8" data-name="Rectangle 1121" transform="translate(1002 596)" stroke="#04355c" stroke-width="1" fill="url(#radial-gradient)">
        <rect width="64" height="23" rx="8" stroke="none"/>
        <rect x="0.5" y="0.5" width="63" height="22" rx="7.5" fill="none"/>
      </g>
      <g id="Rectangle_1122-8" data-name="Rectangle 1122" transform="translate(931 597)" stroke="#04355c" stroke-width="1" fill="url(#radial-gradient)">
        <rect width="64" height="23" rx="8" stroke="none"/>
        <rect x="0.5" y="0.5" width="63" height="22" rx="7.5" fill="none"/>
      </g>
      <text id="آنلاین-8" data-name="آنلاین" transform="translate(1004 595)" fill="#fff" font-size="14" font-family="Sahel"><tspan x="-32.054" y="16">آنلاین</tspan></text>
      <text id="مهندس-8" data-name="مهندس" transform="translate(939 596)" fill="#fff" font-size="14" font-family="Sahel"><tspan x="-42.595" y="16">مهندس</tspan></text>
    </g>
  </g>
</svg>
